<svg version="1.1" xmlns="http://www.w3.org/2000/svg" xmlns:xlink="http://www.w3.org/1999/xlink" width="600" height="600" viewBox="0 0 600 600"><defs/><g transform="scale(1,1) scale(1,1)"><g transform="scale(1,1)"><rect fill="rgb(255,255,255)" stroke="none" x="0" y="0" width="600" height="600" fill-opacity="1"/></g><path fill="none" stroke="#000000" paint-order="fill stroke markers" d=" M 431.5870581587531 258.6424938885789 C 444.5698570675714 309.1358970326768 368.05675231210887 446.5732946496338 323.8104488128703 456.83806235004727 C 279.5641453136317 467.10283005046074 179.0920360721397 370.7245032351576 166.10923716332144 320.2311000910597 C 153.12643825450317 269.7376969469618 201.66735186072205 164.1424111858732 245.91365535996067 153.8776434854597 C 290.15995885919926 143.61287578504624 418.60425924993484 208.14909074448096 431.5870581587531 258.6424938885789" stroke-linecap="round" stroke-miterlimit="10"/>
<path fill="none" stroke="#000000" paint-order="fill stroke markers" d=" M 432.84747661526654 268.47722055561053 C 447.8367271156237 316.13936329764243 377.912732920566 426.1656519771745 334.019288305277 437.1975592480651 C 290.12584368998796 448.2294665189557 184.47605942388972 382.3308069229859 169.48680892353258 334.668664180954 C 154.49755842317543 287.0065214389221 200.19034068784507 162.25661006676418 244.08378530313405 151.2247027958736 C 287.97722991842306 140.19279552498304 417.85822611490937 220.81507781357863 432.84747661526654 268.47722055561053" stroke-linecap="round" stroke-miterlimit="10"/>
<path fill="none" stroke="#000000" paint-order="fill stroke markers" d=" M 408.5495419494562 260.58101128026055 C 425.5422019692945 308.4735684038536 394.53051561004173 419.3669169335197 358.07863503097553 433.10955128666524 C 321.62675445190933 446.8521856398108 206.83091849489736 390.929374522727 189.83825847505904 343.03681739913395 C 172.8455984552207 295.1442602755409 219.67079433287944 159.49684289825225 256.12267491194564 145.75420854510668 C 292.57455549101184 132.0115741919611 391.55688192961793 212.68845415666746 408.5495419494562 260.58101128026055" stroke-linecap="round" stroke-miterlimit="10"/>
<path fill="none" stroke="#000000" paint-order="fill stroke markers" d=" M 395.9101827625871 243.0338866094421 C 410.102087882335 289.37637076596036 380.0946517387591 399.85996892686984 342.1893395959306 415.42893179260705 C 304.2840274531021 430.99789465834425 182.6702150253639 382.7901479603835 168.47830990561596 336.4476638038652 C 154.28640478586803 290.105179647347 219.13259673461457 152.94298971923453 257.0379088774431 137.37402685349736 C 294.9432210202716 121.80506398776016 381.7182776428392 196.69140245292382 395.9101827625871 243.0338866094421" stroke-linecap="round" stroke-miterlimit="10"/>
<path fill="none" stroke="#000000" paint-order="fill stroke markers" d=" M 385.78335539640267 247.51558709128904 C 400.0791370618654 290.63199390074476 394.1823152947426 396.51055759451094 356.48728449697603 413.9687430489487 C 318.7922536992095 431.4269285033864 173.90895227526602 395.3811066273712 159.61317060980326 352.26469981791547 C 145.3173889443405 309.14829300845975 233.01756370643292 172.7284876466519 270.7125945041995 155.27030219221416 C 308.40762530196605 137.81211673777642 371.4875737309399 204.39918028183328 385.78335539640267 247.51558709128904" stroke-linecap="round" stroke-miterlimit="10"/><path fill="none" stroke="#000000" paint-order="fill stroke markers" d=" M 395.2949316284374 265.7466133142184 C 408.13531817618764 308.97137636201694 408.2438937161304 423.8024834668766 367.2144046296272 435.41094289660964 C 326.184915543124 447.0194023263427 161.95838365716835 378.6221329404153 149.11799710941813 335.3973698926168 C 136.2776105616679 292.17260684481823 249.14259625662257 187.67082403955126 290.1720853431258 176.0623646098182 C 331.201574429629 164.45390518008512 382.4545450806871 222.52185026641982 395.2949316284374 265.7466133142184" stroke-linecap="round" stroke-miterlimit="10"/><path fill="none" stroke="#000000" paint-order="fill stroke markers" d=" M 414.79399261732925 252.04254719599294 C 426.790076445931 298.9503862588442 416.7958182948207 444.53189321494403 368.36236404589374 454.36170258593324 C 319.92890979696676 464.19151195692245 136.18935095236924 357.9292424847795 124.1932671237675 311.0214034219282 C 112.19718329516576 264.1135643590769 247.95240682535635 182.74447757981483 296.3858610742833 172.91466820882562 C 344.8193153232103 163.0848588378364 402.7979087887275 205.13470813314166 414.79399261732925 252.04254719599294" stroke-linecap="round" stroke-miterlimit="10"/><path fill="none" stroke="#000000" paint-order="fill stroke markers" d=" M 407.2455290981323 257.60665452278363 C 423.4429166518649 304.59756702378013 423.45063416345045 455.3856894809634 375.91388896209185 468.17623587824914 C 328.37714376073325 480.9667822755349 138.22244544371318 381.3408454074947 122.02505788998059 334.3499329064982 C 105.82767033624799 287.3590204055017 231.19281843833764 199.02130726955596 278.72956363969627 186.2307608722702 C 326.26630884105487 173.44021447498443 391.0481415443997 210.61574202178713 407.2455290981323 257.60665452278363" stroke-linecap="round" stroke-miterlimit="10"/><path fill="none" stroke="#000000" paint-order="fill stroke markers" d=" M 388.18954782762904 262.1857687382321 C 409.45197572604445 303.78974776442715 429.90930986570817 444.36238862585327 387.8067570166569 456.1781593974358 C 345.7042041676056 467.99393016901837 156.8366586317368 374.68437239392233 135.57423073332137 333.0803933677273 C 114.31180283490595 291.4764143415323 218.12963677711303 218.37005601184828 260.2321896261643 206.55428524026576 C 302.3347424752156 194.73851446868323 366.92711992921363 220.5817897120371 388.18954782762904 262.1857687382321" stroke-linecap="round" stroke-miterlimit="10"/><path fill="none" stroke="#000000" paint-order="fill stroke markers" d=" M 364.39158427964304 268.7144559825133 C 386.39358492628986 305.98051819833233 447.7074531766462 427.32709305993023 412.7454427779559 433.8983842314831 C 377.78343237926555 440.4696754030359 176.6215225341479 345.4082652276494 154.6195218875011 308.14220301183036 C 132.61752124085427 270.8761407960113 245.77142849938463 216.87330210812155 280.73343889807495 210.3020109365687 C 315.6954492967653 203.73071976501586 342.3895836329962 231.44839376669424 364.39158427964304 268.7144559825133" stroke-linecap="round" stroke-miterlimit="10"/></g></svg>