<svg version="1.1" xmlns="http://www.w3.org/2000/svg" xmlns:xlink="http://www.w3.org/1999/xlink" width="600" height="600" viewBox="0 0 600 600"><defs/><g transform="scale(1,1) scale(1,1)"><g transform="scale(1,1)"><rect fill="rgb(255,255,255)" stroke="none" x="0" y="0" width="600" height="600" fill-opacity="1"/></g><path fill="none" stroke="#000000" paint-order="fill stroke markers" d=" M 316.6374437055457 460.51179291947324 C 266.69349399695784 479.553276918 140.10532618358087 409.1139165073435 132.48531092656157 354.4118573663766 C 124.86529566954226 299.70979822540966 222.82384213666882 152.4850816865397 270.9173521634299 132.29943807367164 C 319.01086219019095 112.11379446080356 410.4078508978963 174.70641270776946 421.04637108712797 233.29799568916815 C 431.6848912763596 291.88957867056683 379.53758890177437 464.5677728626137 334.7484732988197 483.8489359620637 C 289.95935769586504 503.1300990615137 166.40956180338415 403.7123681870712 152.31167746940008 348.984974285868 C 138.213793135416 294.25758038466483 205.74277283454452 172.4083619087259 250.16116729491534 155.48457255484465 C 294.57956175528614 138.56078320096339 403.5564173544079 195.75750301545844 418.82204423162494 247.44223816258045 C 434.08767110884196 299.12697330970246 382.435393512516 444.5908662251078 341.75492855821733 465.5929834375768 C 301.0744636039187 486.59510065004577 192.69216587314358 425.38831650842485 174.739254505833 373.4549414373944 C 156.78634313852243 321.5215663663639 192.09243931793438 171.14835834865843 234.0374603543538 153.99273301139402 C 275.9824813907733 136.8371076741296 407.93399469960536 219.4914163590134 426.40938072434966 270.52118941380786 C 444.88476674909396 321.5509624686023 386.3469730137102 444.93015690717897 344.8897765028197 460.1713713401607 C 303.4325799919292 475.41258577314244 195.6514724112486 410.2403877273935 177.6662016590064 361.96847601169816 C 159.6809309067642 313.6965642960028 197.74159180141504 188.48932265651177 236.97815198936644 170.53990104598853 C 276.21471217731784 152.59047943546528 396.68525624122526 208.2457131934388 413.0855627867148 254.27194634855869 C 429.4858693322043 300.29817950367857 377.4220268946327 427.46136473425406 335.37999126230363 446.6972999767079 C 293.33795562997454 465.9332352191617 174.49656652454885 418.98939412495 160.83334899274013 369.6875578032816 C 147.1701314609314 320.3857214816132 207.75221653268503 168.75687178804304 253.40068607145133 150.88628204669732 C 299.04915561021767 133.0156923053516 417.3734836345792 216.75103436721224 434.724166225338 262.46401935520726 C 452.07484881609685 308.17700434320227 400.61886746804544 410.32022311208203 357.50478161600415 425.16419197466735 C 314.39069576396287 440.00816083725266 194.20798590575012 397.80495347319675 176.03965111309043 351.52783253071925 C 157.87131632043074 305.25071158824176 205.14642218579368 162.3916777832379 248.49477286004606 147.50146631980243 C 291.84312353429846 132.61125485636697 421.2927006716162 213.29300704676393 436.1297551586047 262.1865637501064 C 450.96680964559323 311.0801204534489 381.16336355509236 424.4729135970466 337.517099781977 440.8628065398573 C 293.8708360088616 457.25269948266794 188.1408702474768 410.58393141817805 174.25217251991234 360.5259214069704 C 160.36347479234786 310.4679113957627 211.88035750437047 152.88123046162303 254.18491341659012 140.5147464726113 C 296.4894693288098 128.14826248359958 414.1014216533184 236.38847355762232 428.07950799323027 286.3270174729 C 442.0575943331421 336.26556138817773 382.6940820868624 430.5404067164789 338.05343145606105 440.1460099642775 C 293.4127808252597 449.75161321207605 177.2622252396678 395.8057067793596 160.23560420842222 343.96063695969156 C 143.20898317717663 292.11556714002353 190.98349352818744 137.17467303424527 235.8937052685875 129.07559104626927 C 280.8039170089876 120.97650905829325 410.069681012097 240.10104314222667 429.6968746508226 295.36614503183546 C 449.3240682895482 350.63124692144424 401.05196095595136 449.00170903896964 353.656867100941 460.6662023839219 C 306.2617732459306 472.3306957288742 163.31396781697225 417.75592643244073 145.32631152076027 365.3531051015491 C 127.33865522454829 312.95028377065745 200.488270403055 154.3723772989842 245.7309293236691 146.24927439857203 C 290.9735882442832 138.12617149815986 397.2310108508548 264.4542999677396 416.78226504444484 316.6144876990761 C 436.3335192380349 368.77467543041263 409.3395131180249 448.5676831613486 363.0384544852096 459.2104007865912 C 316.73739585239434 469.8531184118338 161.52675265614542 431.91041644216705 138.97591324755302 380.4707934505316 C 116.42507383896064 329.0311704588961 178.87123537856604 173.95730284933077 227.7334180336553 150.5726628367782 C 276.5956006887446 127.18802282422563 398.07974398734973 225.23123828547648 432.14900917808865 240.16295337521615 L 432.14900917808865 240.16295337521615" stroke-linecap="round" stroke-miterlimit="10"/></g></svg>